<svg width="20" height="20" viewBox="0 0 20 20" fill="none" xmlns="http://www.w3.org/2000/svg">
<g id="arrow-left-right" clip-path="url(#clip0_3222_300176)">
<path id="Vector" d="M19.3259 6.02967H2.27165L6.85348 1.1772C7.11252 0.902717 7.10675 0.463745 6.84 0.1962C6.57326 -0.0713449 6.14666 -0.0644086 5.88666 0.210073L0.272522 6.15551C0.261929 6.16641 0.253262 6.17831 0.243632 6.18921C0.0953344 6.31604 0 6.50828 0 6.72231C0 7.10579 0.301411 7.41595 0.674082 7.41595H19.3259C19.6986 7.41595 20 7.10579 20 6.72231C20 6.33883 19.6986 6.02967 19.3259 6.02967Z" fill="#616161"/>
<path id="Vector_2" d="M0.674082 13.3863H17.7293L13.1465 18.2387C12.8875 18.5132 12.8933 18.9522 13.16 19.2197C13.4267 19.4873 13.8533 19.4804 14.1133 19.2059L19.7284 13.2604C19.739 13.2495 19.7477 13.2376 19.7573 13.2267C19.9056 13.0999 20.001 12.9077 20.001 12.6936C20.001 12.3102 19.6996 12 19.3269 12H0.674082C0.301411 12 0 12.3102 0 12.6936C0 13.0771 0.301411 13.3873 0.674082 13.3873V13.3863Z" fill="#616161"/>
</g>
<defs>
</defs>
</svg>
