<svg width="24" height="24" viewBox="0 0 24 24" fill="none" xmlns="http://www.w3.org/2000/svg">
<path d="M0 5.25C0 4.00736 1.00736 3 2.25 3H21.75C22.9926 3 24 4.00736 24 5.25V18.75C24 19.9926 22.9926 21 21.75 21H2.25C1.00736 21 0 19.9926 0 18.75V5.25ZM2.25 4.5C1.83579 4.5 1.5 4.83579 1.5 5.25V18.75C1.5 19.1642 1.83579 19.5 2.25 19.5H21.75C22.1642 19.5 22.5 19.1642 22.5 18.75V5.25C22.5 4.83579 22.1642 4.5 21.75 4.5H2.25Z" fill="#616161"/>
<path d="M3 6.75C3 6.33579 3.33579 6 3.75 6H8.25C8.66421 6 9 6.33579 9 6.75C9 7.16421 8.66421 7.5 8.25 7.5H4.5V11.25C4.5 11.6642 4.16421 12 3.75 12C3.33579 12 3 11.6642 3 11.25V6.75Z" fill="#616161"/>
<path d="M21 17.25C21 17.6642 20.6642 18 20.25 18H15.75C15.3358 18 15 17.6642 15 17.25C15 16.8358 15.3358 16.5 15.75 16.5H19.5V12.75C19.5 12.3358 19.8358 12 20.25 12C20.6642 12 21 12.3358 21 12.75V17.25Z" fill="#616161"/>
</svg>
