<svg width="24" height="24" viewBox="0 0 24 24" fill="none" xmlns="http://www.w3.org/2000/svg">
<path d="M3 3C3 1.34315 4.34315 0 6 0H18C19.6569 0 21 1.34315 21 3V23.25C21 23.5266 20.8478 23.7807 20.6039 23.9113C20.36 24.0418 20.0641 24.0275 19.834 23.874L12 19.6514L4.16603 23.874C3.93588 24.0275 3.63997 24.0418 3.39611 23.9113C3.15224 23.7807 3 23.5266 3 23.25V3ZM6 1.5C5.17157 1.5 4.5 2.17157 4.5 3V21.8486L11.584 18.126C11.8359 17.958 12.1641 17.958 12.416 18.126L19.5 21.8486V3C19.5 2.17157 18.8284 1.5 18 1.5H6Z" fill="#616161"/>
</svg>
