<svg width="24" height="24" viewBox="0 0 24 24" fill="none" xmlns="http://www.w3.org/2000/svg">
<path d="M0 3C0 1.34315 1.34315 0 3 0H21C22.6569 0 24 1.34315 24 3V15C24 16.6569 22.6569 18 21 18H6.62132C6.2235 18 5.84196 18.158 5.56066 18.4393L1.28033 22.7197C0.807855 23.1921 0 22.8575 0 22.1893V3ZM7.5 9C7.5 8.17157 6.82843 7.5 6 7.5C5.17157 7.5 4.5 8.17157 4.5 9C4.5 9.82843 5.17157 10.5 6 10.5C6.82843 10.5 7.5 9.82843 7.5 9ZM13.5 9C13.5 8.17157 12.8284 7.5 12 7.5C11.1716 7.5 10.5 8.17157 10.5 9C10.5 9.82843 11.1716 10.5 12 10.5C12.8284 10.5 13.5 9.82843 13.5 9ZM18 10.5C18.8284 10.5 19.5 9.82843 19.5 9C19.5 8.17157 18.8284 7.5 18 7.5C17.1716 7.5 16.5 8.17157 16.5 9C16.5 9.82843 17.1716 10.5 18 10.5Z" fill="#616161"/>
</svg>
