<svg width="10" height="11" viewBox="0 0 10 11" fill="none" xmlns="http://www.w3.org/2000/svg">
<path d="M9.00004 6.16668H5.66671V9.50001C5.66671 9.86668 5.36671 10.1667 5.00004 10.1667C4.63337 10.1667 4.33337 9.86668 4.33337 9.50001V6.16668H1.00004C0.633374 6.16668 0.333374 5.86668 0.333374 5.50001C0.333374 5.13334 0.633374 4.83334 1.00004 4.83334H4.33337V1.50001C4.33337 1.13334 4.63337 0.833344 5.00004 0.833344C5.36671 0.833344 5.66671 1.13334 5.66671 1.50001V4.83334H9.00004C9.36671 4.83334 9.66671 5.13334 9.66671 5.50001C9.66671 5.86668 9.36671 6.16668 9.00004 6.16668Z" fill="#9E9E9E"/>
</svg>
