<svg width="24" height="24" viewBox="0 0 24 24" fill="none" xmlns="http://www.w3.org/2000/svg">
<path d="M4.00214 22H20.2203L20.4204 18.8471H3.75739L4.00214 22Z" fill="black"/>
<path d="M11.8777 4.32944L7.80643 11.9294L2.75635 6.35297L3.64615 17.6H20.5094L21.2436 6.42355L16.3715 11.8353L11.8777 4.32944Z" fill="black"/>
<path d="M11.9888 3.59992C12.4116 3.59992 12.7452 3.24704 12.7452 2.79996C12.7452 2.35286 12.4116 2 11.9888 2C11.5661 2 11.2325 2.35287 11.2325 2.79996C11.2325 3.24706 11.5661 3.59992 11.9888 3.59992Z" fill="black"/>
<path d="M21.2437 3.50584C20.8209 3.50584 20.4873 3.85872 20.4873 4.3058C20.4873 4.75289 20.8209 5.10576 21.2437 5.10576C21.6664 5.10576 22 4.75289 22 4.3058C22 3.88236 21.6664 3.50584 21.2437 3.50584Z" fill="black"/>
<path d="M3.51272 4.32947C3.51272 3.88237 3.17908 3.52951 2.75636 3.52951C2.33363 3.52951 2 3.88238 2 4.32947C2 4.77655 2.33364 5.12943 2.75636 5.12943C3.15673 5.12943 3.51272 4.77639 3.51272 4.32947Z" fill="black"/>
</svg>
