<svg width="24" height="24" viewBox="0 0 24 24" fill="none" xmlns="http://www.w3.org/2000/svg">
<path d="M4.5 3.75C4.5 1.67893 6.17893 0 8.25 0C10.3211 0 12 1.67893 12 3.75C12 1.67893 13.6789 0 15.75 0C17.8211 0 19.5 1.67893 19.5 3.75L19.5 3.75835C19.5001 3.86314 19.5002 4.1635 19.4433 4.5H22.5C23.3284 4.5 24 5.17157 24 6V7.5C24 8.32843 23.3284 9 22.5 9H1.5C0.671574 9 0 8.32843 0 7.5V6C0 5.17157 0.671573 4.5 1.5 4.5H4.55674C4.4998 4.1635 4.49995 3.86314 4.5 3.75835L4.5 3.75ZM6.10199 4.5H10.5V3.75C10.5 2.50736 9.49264 1.5 8.25 1.5C7.00736 1.5 6 2.50736 6 3.75C6 3.87713 6.00292 4.16026 6.06732 4.39641C6.07878 4.43842 6.09066 4.4728 6.10199 4.5ZM13.5 4.5H17.898C17.9093 4.4728 17.9212 4.43842 17.9327 4.39641C17.9971 4.16026 18 3.87713 18 3.75C18 2.50736 16.9926 1.5 15.75 1.5C14.5074 1.5 13.5 2.50736 13.5 3.75V4.5Z" fill="#616161"/>
<path d="M22.5 10.5V21.75C22.5 22.9926 21.4926 24 20.25 24H13.5V10.5H22.5Z" fill="#616161"/>
<path d="M3.75 24C2.50736 24 1.5 22.9926 1.5 21.75V10.5H10.5V24H3.75Z" fill="#616161"/>
</svg>
