<svg width="24" height="24" viewBox="0 0 24 24" fill="none" xmlns="http://www.w3.org/2000/svg">
<path d="M10.4345 2.61803C10.5313 1.21441 11.8622 0.129966 13.2957 0.488347L13.6878 0.586379C14.3815 0.759791 14.9988 1.27053 15.2049 2.03328C15.5355 3.25729 16.0048 5.80083 15.2991 8.79758C15.5029 8.76968 15.726 8.74341 15.9633 8.72183C17.0321 8.62468 18.4665 8.61492 19.7372 9.03849C20.5146 9.29762 21.2286 10.0589 21.5364 10.947C21.8132 11.7455 21.7774 12.6898 21.1855 13.5469C21.2736 13.7244 21.3413 13.9097 21.393 14.0908C21.5088 14.4961 21.5625 14.9417 21.5625 15.375C21.5625 15.8083 21.5088 16.2539 21.393 16.6592C21.3352 16.8614 21.2576 17.0688 21.1539 17.2648C21.4063 17.8449 21.3136 18.4934 21.149 18.9872C20.9873 19.4724 20.7182 19.945 20.416 20.3384C20.4971 20.567 20.5312 20.8066 20.5312 21.0352C20.5312 21.494 20.3972 21.9728 20.1512 22.4034C19.6484 23.2832 18.6556 24 17.25 24H12C11.093 24 10.3964 23.8781 9.80151 23.6732C9.21265 23.4704 8.75448 23.1959 8.34532 22.9465L8.27391 22.903C7.5177 22.4414 6.77611 21.9887 5.17188 21.8185C4.02349 21.6968 3 20.7676 3 19.501V13.4995C3 12.2241 4.02824 11.3514 5.03539 11.0767C6.30877 10.7293 7.39636 9.89644 8.23319 8.96129C9.07342 8.02232 9.60465 7.04311 9.79136 6.5044C10.0904 5.64167 10.3256 4.19543 10.4345 2.61803Z" fill="#757575"/>
</svg>
