<svg width="24" height="24" viewBox="0 0 24 24" fill="none" xmlns="http://www.w3.org/2000/svg">
<path d="M19.9581 23.3929L19.7542 22.6427V22.6408L19.1188 20.3033L16.977 12.4162L16.8445 11.9287L16.7965 11.7527L16.1995 9.55292C16.1491 9.36874 15.9812 9.24291 15.7921 9.24291H14.6249L15.96 6.04043L18.2362 0.577921C18.2909 0.448272 18.2741 0.301878 18.1983 0.184189C18.1187 0.0669776 17.9881 0 17.8499 0H6.14265C6.00395 0 5.8739 0.067456 5.79424 0.184667C5.71889 0.301878 5.70161 0.448272 5.75632 0.5784L8.03251 6.04138L9.3676 9.24387H8.20047C8.01139 9.24387 7.84343 9.36921 7.79304 9.55388L7.75512 9.68784C7.73401 9.68736 4.01379 23.4723 4.01379 23.4723C3.9802 23.5977 4.00947 23.7321 4.0853 23.8364C4.16496 23.9368 4.29118 23.9995 4.42123 23.9995H19.58C19.8108 23.9995 19.9999 23.811 19.9999 23.5809C19.9999 23.5139 19.9831 23.4513 19.9576 23.3924L19.9581 23.3929ZM8.69622 5.45868L6.77276 0.837699H17.2203L15.2973 5.45916H8.69622V5.45868ZM8.51961 10.0797H9.71649L10.3044 11.4943C10.3716 11.6532 10.5227 11.7541 10.695 11.7541H13.2985C13.4708 11.7541 13.622 11.6536 13.6891 11.4943L14.277 10.0797H15.4739L17.6786 18.2093H6.31541L8.51961 10.0797Z" fill="#616161"/>
<path d="M13.5126 14.5471C13.5126 15.5182 12.8321 16.3095 11.9966 16.3095C11.1611 16.3095 10.4806 15.5182 10.4806 14.5471C10.4806 13.7185 11.4255 12.3952 11.6141 12.1359C11.7945 11.8933 12.1977 11.8933 12.3786 12.1359C12.5672 12.3952 13.5121 13.718 13.5121 14.5471H13.5126Z" fill="#616161"/>
</svg>
