<svg width="24" height="24" viewBox="0 0 24 24" fill="none" xmlns="http://www.w3.org/2000/svg">
<g clip-path="url(#clip0_236_8372)">
<g clip-path="url(#clip1_236_8372)">
<path d="M20.7331 6.08937V6.02174C20.7331 3.95048 19.0523 2.26812 16.9831 2.26812C14.9138 2.26812 13.2331 3.95048 13.2331 6.02174V9.37802H11.9662V6.02174C11.9662 3.25725 14.2128 1 16.9831 1C19.7533 1 22 3.24879 22 6.02174V6.08937H20.7331Z" fill="#231F20"/>
<path d="M13.7652 9.10749H2.84459L2 22H18.0304L17.1858 9.10749H13.7652ZM8.63007 19.244L9.3902 15.0761C8.88345 14.8394 8.52872 14.3237 8.52872 13.7234C8.52872 12.9034 9.19595 12.2355 10.0152 12.2355C10.8345 12.2355 11.5017 12.9034 11.5017 13.7234C11.5017 14.2814 11.1892 14.7633 10.7331 15.0169L11.5017 19.2355H8.62162L8.63007 19.244Z" fill="black"/>
</g>
</g>
</svg>
