<svg width="24" height="24" viewBox="0 0 24 24" fill="none" xmlns="http://www.w3.org/2000/svg">
<g clip-path="url(#clip0_236_8204)">
<g clip-path="url(#clip1_236_8204)">
<path d="M19.157 8.76653H17.0074V6.14587C17.0074 3.30827 14.765 0.991325 12 0.991325C9.23498 0.991325 6.99262 3.30827 6.99262 6.15455V8.77521H4.84299L4 22H20L19.157 8.76653ZM10.6175 19.1711L11.3762 14.893C10.8704 14.65 10.5163 14.1207 10.5163 13.5045C10.5163 12.6628 11.1823 11.9773 12 11.9773C12.8177 11.9773 13.4837 12.6628 13.4837 13.5045C13.4837 14.0773 13.1718 14.5719 12.7165 14.8322L13.4837 19.1624H10.6091L10.6175 19.1711ZM15.7429 8.76653H8.25711V6.14587C8.25711 4.01984 9.93467 2.29298 12 2.29298C14.0653 2.29298 15.7429 4.01984 15.7429 6.14587V8.76653Z" fill="#616161"/>
</g>
</g>
</svg>
