<svg width="24" height="24" viewBox="0 0 24 24" fill="none" xmlns="http://www.w3.org/2000/svg">
<path d="M20.2474 1.1919L20.4697 0.969677C21.1768 0.26257 22.3232 0.262569 23.0303 0.969676C23.7374 1.67678 23.7374 2.82323 23.0303 3.53034L22.8081 3.75256C23.5973 4.63606 23.5678 5.99286 22.7197 6.841L7.28031 22.2803C7.1842 22.3765 7.06376 22.4446 6.93189 22.4776L0.931887 23.9776C0.676306 24.0415 0.405941 23.9666 0.219655 23.7803C0.03337 23.594 -0.0415168 23.3237 0.0223785 23.0681L1.52238 17.0681C1.55535 16.9362 1.62354 16.8158 1.71966 16.7197L16.1815 2.25778C15.8889 2.05139 15.4815 2.07913 15.2197 2.341L10.2803 7.28034C9.98742 7.57323 9.51255 7.57323 9.21965 7.28034C8.92676 6.98744 8.92676 6.51257 9.21965 6.21968L14.159 1.28034C15.008 0.431377 16.3665 0.402662 17.25 1.19419C18.1016 0.431135 19.3949 0.430372 20.2474 1.1919ZM19.2803 2.341C18.9874 2.0481 18.5125 2.0481 18.2197 2.341L2.92721 17.6334L1.78076 22.2192L6.36655 21.0728L21.659 5.78034C21.9519 5.48744 21.9519 5.01257 21.659 4.71968L19.2803 2.341Z" fill="#616161"/>
</svg>
