<svg width="24" height="24" viewBox="0 0 24 24" fill="none" xmlns="http://www.w3.org/2000/svg">
<path d="M16.5 1.5C17.3284 1.5 18 2.17157 18 3V21C18 21.8284 17.3284 22.5 16.5 22.5H7.5C6.67157 22.5 6 21.8284 6 21V3C6 2.17157 6.67157 1.5 7.5 1.5H16.5ZM7.5 0C5.84315 0 4.5 1.34315 4.5 3V21C4.5 22.6569 5.84315 24 7.5 24H16.5C18.1569 24 19.5 22.6569 19.5 21V3C19.5 1.34315 18.1569 0 16.5 0H7.5Z" fill="#616161"/>
<circle cx="12" cy="21" r="1" fill="#616161"/>
<path d="M15 4.5C15.5523 4.5 15.5 4.44772 15.5 5V17C15.5 17.5523 15.5523 17.5 15 17.5H9C8.44772 17.5 8.5 17.5523 8.5 17V5C8.5 4.44772 8.44772 4.5 9 4.5H15ZM9 3C7.89543 3 7 3.89543 7 5V17C7 18.1046 7.89543 19 9 19H15C16.1046 19 17 18.1046 17 17V5C17 3.89543 16.1046 3 15 3H9Z" fill="#616161"/>
</svg>
