<svg width="21" height="24" viewBox="0 0 21 24" fill="none" xmlns="http://www.w3.org/2000/svg">
<path d="M4.5 8.58824H3C1.34315 8.58824 3.33786e-07 9.85237 3.33786e-07 11.4118L0 21.1765C0 22.7359 1.34315 24 3 24H18C19.6569 24 21 22.7359 21 21.1765V11.4118C21 9.85237 19.6569 8.58824 18 8.58824H16.5V10H18C18.8284 10 19.5 10.6321 19.5 11.4118V21.1765C19.5 21.9562 18.8284 22.5882 18 22.5882H3C2.17157 22.5882 1.5 21.9562 1.5 21.1765L1.5 11.4118C1.5 10.6321 2.17157 10 3 10H4.5V8.58824Z" fill="#616161"/>
<path fill-rule="evenodd" clip-rule="evenodd" d="M10.5 11.2941C10.8866 11.2941 11.2 10.9781 11.2 10.5882V2.41003L14.205 5.44031C14.4784 5.71597 14.9216 5.71597 15.195 5.44031C15.4683 5.16465 15.4683 4.7177 15.195 4.44204L10.995 0.206747C10.7216 -0.0689173 10.2784 -0.0689173 10.005 0.206747L5.805 4.44204C5.53163 4.7177 5.53163 5.16465 5.805 5.44031C6.07837 5.71597 6.52158 5.71597 6.79495 5.44031L9.79998 2.41003V10.5882C9.79998 10.9781 10.1134 11.2941 10.5 11.2941Z" fill="#616161"/>
</svg>
